<svg width="262" height="58" fill="none" xmlns="http://www.w3.org/2000/svg"><path d="M35.8 6.078c-1.404-.846-5.432-.323-10.27 1.3-8.466 6.275-15.611 15.52-16.11 30.366-.09.355-.925-.049-1.09-.158-2.287-4.752-3.193-9.755-1.284-16.973.356-.642-.808-1.433-1.016-1.207-.42.455-2.166 2.473-3.326 4.655-5.75 10.816-1.99 24.676 8.071 30.742 10.059 6.074 22.76 2.155 28.361-8.755 6.48-12.592.463-37.67-3.335-39.97Z" fill="#82B541" fill-opacity=".4"/><path d="M72.707 12.12c-10.937 0-18.876 9.615-18.876 22.862 0 13.355 7.918 22.682 19.258 22.682 5.727 0 10.261-2.117 13.868-6.476 1.077-1.375 1.193-2.7 1.193-3.207 0-2.16-1.359-3.728-3.23-3.728-.943 0-1.732.421-2.637 1.41-2.042 2.25-4.731 4.548-9.194 4.548-6.207 0-11.255-5.51-11.573-12.585h24.703c2.686 0 3.991-1.485 3.991-4.538 0-.9 0-1.548-.153-2.828-1.33-11.357-7.816-18.137-17.349-18.137v-.002Zm0 7.092c5.931 0 9.737 4.47 9.972 11.683H61.523c.555-6.676 5.329-11.683 11.183-11.683ZM113.799 12.12c-4.968 0-9.888 3.38-11.81 8.07v-2.9c0-4.49-2.944-4.718-3.534-4.718-1.744 0-3.61 1.24-3.61 4.719v35.02c0 4.664 3.135 4.9 3.763 4.9.628 0 3.763-.236 3.763-4.9V33.538c0-8.168 3.915-13.873 9.52-13.873 5.429 0 8.069 4.212 8.069 12.879V52.31c0 4.664 3.135 4.9 3.763 4.9.628 0 3.762-.236 3.762-4.9V29.75c0-8.522-3.596-17.626-13.686-17.626v-.003ZM161.534 12.573c-1.739 0-3 1.199-3.751 3.558l-10.296 30.611-10.217-30.61c-.8-2.395-2.052-3.56-3.827-3.56-2.075 0-3.764 1.915-3.764 4.269 0 .581.056 1.337.473 2.517l11.832 33.032c1.41 3.985 3.729 4.821 5.427 4.821 1.696 0 4.017-.836 5.43-4.819l11.908-33.216c.407-1.165.47-2.02.47-2.425 0-2.381-1.586-4.178-3.685-4.178ZM183.408 12.12c-4.813 0-9.296 1.586-12.621 4.46-1.128.92-1.676 2.068-1.676 3.51 0 1.988 1.283 3.545 2.924 3.545.709 0 1.504-.334 2.233-.938 2.858-2.253 5.544-3.303 8.452-3.303 5.563 0 8.758 3.345 8.758 9.18v.966c-12.49.016-25.193 1.8-25.193 14.646 0 9.247 6.682 13.386 13.305 13.386 5.275 0 9.487-2.471 12.19-7.15v2.25c0 3.35 1.902 4.539 3.536 4.539.343 0 3.379-.128 3.379-4.539V29.114c0-10.643-5.716-16.995-15.288-16.995l.001.002Zm6.487 23.97h1.583v2.05c0 7.497-4.038 12.34-10.284 12.34-1.696 0-7.229-.466-7.229-6.474 0-7.095 9.091-7.915 15.93-7.915ZM218.295 20.657c3.293 0 3.459-3.03 3.459-3.636 0-1.801-.909-3.727-3.459-3.727h-6.77V5.197c0-3.616-1.984-4.9-3.686-4.9-.627 0-3.762.236-3.762 4.9v38.45c0 8.873 3.702 13.563 10.708 13.563 1.812 0 3.579-.379 4.733-1.015 1.325-.781 2.083-2.066 2.083-3.523 0-2.056-1.261-3.547-3-3.547-.336 0-.813.098-1.34.278-.645.19-1.081.264-1.559.264-2.85 0-4.177-2.2-4.177-6.923v-22.09h6.77v.003ZM242.731 12.12c-11.124 0-19.194 9.323-19.194 22.165 0 6.253 1.956 11.952 5.505 16.047 3.521 4.061 8.382 6.298 13.689 6.298 10.985 0 19.269-9.606 19.269-22.344 0-12.843-8.106-22.165-19.269-22.165Zm0 37.136c-7.628 0-11.617-7.53-11.617-14.972 0-10.223 6.022-14.88 11.617-14.88 5.595 0 11.617 4.657 11.617 14.88 0 10.288-6.022 14.973-11.617 14.973Z" fill="#DBDBDB" fill-opacity=".95"/></svg>