<svg width="256" height="55" fill="none" xmlns="http://www.w3.org/2000/svg"><path d="M255.937 24.718v-4.501h-5.589V13.22l-.188.058-5.25 1.606-.104.031v5.303h-8.286v-2.953c0-1.376.307-2.429.914-3.13.601-.694 1.462-1.046 2.559-1.046.79 0 1.608.185 2.43.553l.206.091v-4.74l-.096-.036c-.768-.276-1.812-.415-3.105-.415-1.63 0-3.112.355-4.403 1.058a7.52 7.52 0 0 0-3.022 2.988c-.711 1.277-1.071 2.751-1.071 4.383v3.247h-3.892v4.5h3.892V43.68h5.588V24.718h8.286v12.05c0 4.963 2.341 7.478 6.958 7.478.758 0 1.556-.089 2.372-.263.83-.178 1.395-.357 1.727-.548l.074-.043v-4.543l-.227.15a3.874 3.874 0 0 1-1.124.49c-.445.125-.816.188-1.104.188-1.081 0-1.881-.291-2.378-.867-.502-.58-.756-1.595-.756-3.015V24.718h5.589Zm-41.374 14.96c-2.028 0-3.627-.673-4.754-1.997-1.133-1.332-1.707-3.23-1.707-5.642 0-2.487.574-4.434 1.708-5.79 1.128-1.345 2.711-2.028 4.708-2.028 1.937 0 3.479.652 4.584 1.94 1.11 1.294 1.673 3.226 1.673 5.743 0 2.548-.53 4.505-1.574 5.814-1.038 1.3-2.598 1.96-4.638 1.96Zm.249-20.026c-3.869 0-6.942 1.133-9.133 3.37-2.19 2.236-3.3 5.33-3.3 9.198 0 3.674 1.083 6.629 3.221 8.781 2.138 2.154 5.047 3.245 8.645 3.245 3.752 0 6.763-1.15 8.954-3.416 2.19-2.265 3.299-5.33 3.299-9.108 0-3.731-1.042-6.708-3.096-8.847-2.054-2.139-4.946-3.223-8.59-3.223Zm-21.442 0c-2.632 0-4.808.673-6.472 2-1.672 1.335-2.521 3.086-2.521 5.206 0 1.101.184 2.08.544 2.91a5.856 5.856 0 0 0 1.669 2.18c.74.61 1.882 1.25 3.396 1.9 1.273.524 2.222.967 2.825 1.316.589.342 1.007.686 1.244 1.021.229.328.346.776.346 1.33 0 1.577-1.181 2.343-3.61 2.343-.9 0-1.928-.188-3.054-.558a11.477 11.477 0 0 1-3.128-1.587l-.232-.166v5.379l.085.04c.791.365 1.787.672 2.962.914 1.173.243 2.238.366 3.163.366 2.856 0 5.156-.676 6.834-2.012 1.689-1.343 2.546-3.136 2.546-5.329 0-1.581-.462-2.938-1.37-4.032-.902-1.084-2.467-2.08-4.651-2.961-1.74-.698-2.854-1.277-3.313-1.723-.443-.43-.669-1.037-.669-1.806 0-.683.278-1.23.848-1.672.575-.445 1.375-.672 2.378-.672.931 0 1.883.147 2.83.435.947.288 1.778.674 2.472 1.146l.229.156v-5.102l-.088-.038c-.64-.274-1.485-.509-2.51-.7-1.021-.189-1.947-.284-2.753-.284Zm-23.559 20.026c-2.027 0-3.626-.673-4.753-1.997-1.134-1.332-1.708-3.23-1.708-5.642 0-2.487.575-4.434 1.709-5.79 1.127-1.345 2.71-2.028 4.707-2.028 1.937 0 3.479.652 4.584 1.94 1.11 1.294 1.673 3.226 1.673 5.743 0 2.548-.53 4.505-1.574 5.814-1.038 1.3-2.597 1.96-4.638 1.96Zm.25-20.026c-3.87 0-6.943 1.133-9.133 3.37-2.19 2.236-3.3 5.33-3.3 9.198 0 3.675 1.084 6.629 3.221 8.781 2.137 2.154 5.047 3.245 8.646 3.245 3.75 0 6.762-1.15 8.952-3.416 2.19-2.265 3.3-5.33 3.3-9.108 0-3.731-1.042-6.708-3.097-8.847-2.056-2.139-4.946-3.223-8.589-3.223Zm-20.915 4.628v-4.063h-5.52V43.68h5.519V31.678c0-2.041.463-3.718 1.376-4.984.902-1.252 2.103-1.885 3.57-1.885.497 0 1.055.081 1.66.244.598.161 1.031.336 1.287.52l.231.168v-5.564l-.089-.038c-.515-.219-1.241-.329-2.162-.329a5.658 5.658 0 0 0-3.691 1.323c-.932.771-1.607 1.829-2.123 3.148h-.059.001Zm-15.403-4.628c-2.532 0-4.791.543-6.712 1.613a10.869 10.869 0 0 0-4.426 4.552c-1.008 1.943-1.52 4.212-1.52 6.743 0 2.216.496 4.251 1.477 6.044.981 1.796 2.372 3.201 4.13 4.175 1.757.973 3.786 1.467 6.033 1.467 2.623 0 4.863-.525 6.658-1.558l.073-.042V37.59l-.232.169a10.385 10.385 0 0 1-2.7 1.406c-.975.34-1.865.513-2.645.513-2.165 0-3.904-.678-5.166-2.014-1.265-1.338-1.906-3.216-1.906-5.58 0-2.379.669-4.305 1.987-5.727 1.314-1.417 3.055-2.136 5.177-2.136 1.814 0 3.581.614 5.254 1.828l.231.168v-5.328l-.075-.043c-.629-.352-1.487-.643-2.554-.863a15.243 15.243 0 0 0-3.085-.331h.001Zm-16.46.565h-5.519V43.68h5.52V20.218l-.001-.001Zm-2.703-9.995c-.908 0-1.7.309-2.351.922-.654.615-.986 1.389-.986 2.301 0 .899.328 1.659.975 2.256.643.597 1.438.9 2.362.9.924 0 1.721-.303 2.372-.898.655-.6.988-1.359.988-2.258 0-.881-.323-1.647-.961-2.277-.636-.627-1.443-.946-2.399-.946Zm-13.77 8.264V43.68h5.632V10.94h-7.795l-9.909 24.318-9.616-24.318h-8.113v32.74h5.293V18.483h.182L86.638 43.68h3.994l9.996-25.193h.182Z" fill="#DBDBDB" fill-opacity=".95"/><path d="M25.963 25.963H0V0h25.963v25.963Z" fill="#F1511B" fill-opacity=".4"/><path d="M54.63 25.963H28.667V0H54.63v25.963Z" fill="#80CC28" fill-opacity=".4"/><path d="M25.962 54.64H0V28.677h25.962V54.64Z" fill="#00ADEF" fill-opacity=".4"/><path d="M54.63 54.64H28.667V28.677H54.63V54.64Z" fill="#FBBC09" fill-opacity=".4"/></svg>