<svg width="69" height="69" fill="none" xmlns="http://www.w3.org/2000/svg"><g filter="url(#a)"><path fill-rule="evenodd" clip-rule="evenodd" d="M8 24.5a22.5 22.5 0 1 1 45 0 22.5 22.5 0 0 1-45 0Zm18.747-7.296a1.5 1.5 0 0 1 1.5-.006l10.5 6a1.5 1.5 0 0 1 0 2.604l-10.5 6A1.5 1.5 0 0 1 26 30.5v-12a1.5 1.5 0 0 1 .747-1.296Z" fill="url(#b)"/></g><defs><linearGradient id="b" x1="8" y1="24.5" x2="53" y2="24.5" gradientUnits="userSpaceOnUse"><stop stop-color="#FF0844"/><stop offset="1" stop-color="#FFB199"/></linearGradient><filter id="a" x="0" y="0" width="69" height="69" filterUnits="userSpaceOnUse" color-interpolation-filters="sRGB"><feFlood flood-opacity="0" result="BackgroundImageFix"/><feColorMatrix in="SourceAlpha" values="0 0 0 0 0 0 0 0 0 0 0 0 0 0 0 0 0 0 127 0" result="hardAlpha"/><feOffset dx="4" dy="10"/><feGaussianBlur stdDeviation="6"/><feColorMatrix values="0 0 0 0 0 0 0 0 0 0 0 0 0 0 0 0 0 0 0.1 0"/><feBlend in2="BackgroundImageFix" result="effect1_dropShadow_2:29"/><feBlend in="SourceGraphic" in2="effect1_dropShadow_2:29" result="shape"/></filter></defs></svg>