<svg width="228" height="58" fill="none" xmlns="http://www.w3.org/2000/svg"><path d="m72.85 45.456 2.844-6.618c3.074 2.298 7.156 3.493 11.194 3.493 2.981 0 4.862-1.15 4.862-2.896-.046-4.872-17.845-1.057-17.983-13.283-.045-6.204 5.46-10.985 13.258-10.985 4.634 0 9.267 1.15 12.57 3.77l-2.66 6.756c-3.028-1.93-6.79-3.31-10.368-3.31-2.432 0-4.037 1.15-4.037 2.62.046 4.78 17.983 2.16 18.166 13.835 0 6.343-5.367 10.801-13.074 10.801-5.643 0-10.827-1.333-14.772-4.183Zm109.137-9.008 7.845 4.366c-2.936 5.286-8.533 8.825-15.001 8.825-9.497 0-17.204-7.722-17.204-17.236s7.707-17.236 17.204-17.236c6.422 0 12.065 3.585 15.001 8.825l-7.845 4.366c-1.422-2.482-4.083-4.182-7.156-4.182-4.542 0-8.212 3.677-8.212 8.227 0 4.55 3.67 8.227 8.212 8.227 3.073 0 5.734-1.7 7.156-4.182ZM104.641.873h9.818v48.122h-9.818V.873Zm89.044 0h9.817V29.14l11.102-13.283h12.02L212.907 31.85l14.818 17.144h-12.57l-11.653-14.431v14.431h-9.817V.873ZM143.636 36.54v-8.136c-1.423-2.39-4.359-4.228-7.662-4.228-4.542 0-8.211 3.677-8.211 8.227 0 4.55 3.669 8.227 8.211 8.227 3.303 0 6.239-1.746 7.662-4.09Zm0-20.683h9.817V48.95h-9.817v-3.907c-1.606 2.712-5.598 4.596-9.772 4.596-8.625 0-15.414-7.721-15.414-17.281 0-9.56 6.789-17.19 15.414-17.19 4.174 0 8.166 1.884 9.772 4.596v-3.908.001Z" fill="#DBDBDB" fill-opacity=".95"/><path d="M12.157 36.494a6.056 6.056 0 1 1-12.11 0 6.055 6.055 0 0 1 6.055-6.067h6.055v6.067Zm3.028 0a6.055 6.055 0 1 1 12.111 0V51.66a6.056 6.056 0 1 1-12.11 0V36.494Z" fill="#E01E5A" fill-opacity=".4"/><path d="M21.24 12.134a6.038 6.038 0 0 1-4.283-1.776 6.062 6.062 0 0 1-1.772-4.291 6.055 6.055 0 1 1 12.11 0v6.067H21.24Zm0 3.08a6.056 6.056 0 0 1 6.056 6.066 6.056 6.056 0 0 1-6.056 6.067H6.055a6.038 6.038 0 0 1-4.283-1.775A6.062 6.062 0 0 1 0 21.28a6.055 6.055 0 0 1 6.055-6.066h15.186Z" fill="#36C5F0" fill-opacity=".4"/><path d="M45.508 21.28a6.055 6.055 0 1 1 12.111 0 6.056 6.056 0 0 1-6.055 6.067h-6.056V21.28Zm-3.028 0a6.055 6.055 0 1 1-12.11 0V6.067a6.055 6.055 0 1 1 12.11 0V21.28Z" fill="#2EB67D" fill-opacity=".4"/><path d="M36.425 45.594a6.056 6.056 0 0 1 6.056 6.067 6.056 6.056 0 1 1-12.112 0v-6.067h6.056Zm0-3.034a6.04 6.04 0 0 1-4.284-1.775 6.063 6.063 0 0 1-1.772-4.291 6.055 6.055 0 0 1 6.056-6.067H51.61a6.055 6.055 0 0 1 6.055 6.067 6.056 6.056 0 0 1-6.056 6.067H36.425Z" fill="#ECB22E" fill-opacity=".4"/></svg>